<svg width="48" height="48" viewBox="0 0 48 48" fill="none" xmlns="http://www.w3.org/2000/svg">
<g opacity="0.98">
<rect x="8" y="8" width="32" height="32" rx="16" fill="#FA96A0"/>
<path fill-rule="evenodd" clip-rule="evenodd" d="M24 15C22.8954 15 22 15.8954 22 17V22H17C15.8954 22 15 22.8954 15 24C15 25.1046 15.8954 26 17 26H22V31C22 32.1046 22.8954 33 24 33C25.1046 33 26 32.1046 26 31V26H31C32.1046 26 33 25.1046 33 24C33 22.8954 32.1046 22 31 22H26V17C26 15.8954 25.1046 15 24 15Z" fill="#FFFCF8"/>
</g>
</svg>
