<svg width="32" height="32" viewBox="0 0 32 32" fill="none" xmlns="http://www.w3.org/2000/svg">
<g clip-path="url(#clip0_502_4116)">
<path d="M24.7467 9.8403C25.4611 9.12589 25.4611 7.9676 24.7467 7.25319C24.0323 6.53878 22.874 6.53878 22.1596 7.25319L15.9998 13.413L9.84006 7.25319C9.12565 6.53878 7.96736 6.53879 7.25295 7.25319C6.53854 7.9676 6.53854 9.12589 7.25295 9.8403L13.4127 16.0001L7.25295 22.1599C6.53854 22.8743 6.53854 24.0326 7.25295 24.747C7.96736 25.4614 9.12565 25.4614 9.84006 24.747L15.9998 18.5872L22.1596 24.747C22.874 25.4614 24.0323 25.4614 24.7467 24.747C25.4611 24.0326 25.4611 22.8743 24.7467 22.1599L18.5869 16.0001L24.7467 9.8403Z" fill="#AE7565" stroke="#AE7565"/>
</g>
<defs>
<clipPath id="clip0_502_4116">
<rect width="32" height="32" fill="white"/>
</clipPath>
</defs>
</svg>
