<svg width="32" height="32" viewBox="0 0 32 32" fill="none" xmlns="http://www.w3.org/2000/svg">
<g clip-path="url(#clip0_468_4786)">
<path d="M15.9999 29.3333C17.4666 29.3333 18.6666 28.1333 18.6666 26.6666H13.3333C13.3333 28.1333 14.5333 29.3333 15.9999 29.3333ZM23.9999 21.3333V14.6666C23.9999 10.5733 21.8266 7.14659 17.9999 6.23992V5.33325C17.9999 4.22659 17.1066 3.33325 15.9999 3.33325C14.8933 3.33325 13.9999 4.22659 13.9999 5.33325V6.23992C10.1866 7.14659 7.99992 10.5599 7.99992 14.6666V21.3333L5.33325 23.9999V25.3333H26.6666V23.9999L23.9999 21.3333ZM21.3333 22.6666H10.6666V14.6666C10.6666 11.3599 12.6799 8.66659 15.9999 8.66659C19.3199 8.66659 21.3333 11.3599 21.3333 14.6666V22.6666Z" fill="#AE7565"/>
</g>
<defs>
<clipPath id="clip0_468_4786">
<rect width="32" height="32" fill="white"/>
</clipPath>
</defs>
</svg>
